<svg width="18" height="18" viewBox="0 0 18 18" fill="none" xmlns="http://www.w3.org/2000/svg">
<path fill-rule="evenodd" clip-rule="evenodd" d="M9 0C9.26522 0 9.51957 0.105357 9.70711 0.292893C9.89464 0.48043 10 0.734784 10 1V9C10 9.26522 9.89464 9.51957 9.70711 9.70711C9.51957 9.89464 9.26522 10 9 10H1C0.734784 10 0.48043 9.89464 0.292893 9.70711C0.105357 9.51957 0 9.26522 0 9C0 8.73478 0.105357 8.48043 0.292893 8.29289C0.48043 8.10536 0.734784 8 1 8H8V1C8 0.734784 8.10536 0.48043 8.29289 0.292893C8.48043 0.105357 8.73478 0 9 0Z" fill="black"/>
<path fill-rule="evenodd" clip-rule="evenodd" d="M8 9C8 8.73478 8.10536 8.48043 8.29289 8.29289C8.48043 8.10536 8.73478 8 9 8H17C17.2652 8 17.5196 8.10536 17.7071 8.29289C17.8946 8.48043 18 8.73478 18 9C18 9.26522 17.8946 9.51957 17.7071 9.70711C17.5196 9.89464 17.2652 10 17 10H10V17C10 17.2652 9.89464 17.5196 9.70711 17.7071C9.51957 17.8946 9.26522 18 9 18C8.73478 18 8.48043 17.8946 8.29289 17.7071C8.10536 17.5196 8 17.2652 8 17V9Z" fill="black"/>
</svg>
